<?xml version="1.0" encoding="utf-8"?>
<!-- Generator: Adobe Illustrator 22.1.0, SVG Export Plug-In . SVG Version: 6.00 Build 0)  -->
<svg version="1.1" id="Layer_1" xmlns:sketch="http://www.bohemiancoding.com/sketch/ns"
	 xmlns="http://www.w3.org/2000/svg" xmlns:xlink="http://www.w3.org/1999/xlink" x="0px" y="0px" viewBox="0 0 22 22"
	 style="enable-background:new 0 0 22 22;" xml:space="preserve">
<title>editor_books_library_collection_glyph</title>
<description>Created with Sketch.</description>
<title>editor_books_library_collection_glyph</title>
<description>Created with Sketch.</description>
<g>
	<path d="M4.6,3c0-0.8,0-1.3-0.1-1.6C4.5,1.2,4.3,1,4,1C3.8,0.9,3.2,0.9,2.4,0.9C1.5,0.9,1,0.9,0.7,1C0.5,1,0.3,1.2,0.2,1.4
		C0.2,1.7,0.1,2.2,0.1,3v11.5L4.6,11V3z"/>
	<path d="M0.1,17.4v2.1v0.3c0,0.8,0,1.3,0.1,1.6c0.1,0.3,0.2,0.4,0.5,0.5c0.3,0.1,0.8,0.1,1.6,0.1c0.8,0,1.4,0,1.7-0.1
		c0.3-0.1,0.4-0.2,0.5-0.5c0.1-0.3,0.1-0.8,0.1-1.6V16v-2.1L0.1,17.4z"/>
	<path d="M7.6,11.6v8.1c0,0.8,0,1.3,0.1,1.6c0.1,0.3,0.2,0.4,0.5,0.5c0.3,0.1,0.8,0.1,1.6,0.1c0.8,0,1.4,0,1.7-0.1
		c0.3-0.1,0.4-0.2,0.5-0.5c0.1-0.3,0.1-0.8,0.1-1.6V8L7.6,11.6z"/>
	<path d="M12.1,3.2V3c0-0.8,0-1.3-0.1-1.6C11.9,1.2,11.7,1,11.5,1c-0.3-0.1-0.8-0.1-1.7-0.1C9,0.9,8.4,0.9,8.2,1
		C7.9,1,7.7,1.2,7.7,1.4C7.6,1.7,7.6,2.2,7.6,3v3.8v1.9l4.5-3.5V3.2z"/>
	<path d="M19.5,11.6v8.1c0,0.8,0,1.3-0.1,1.6c-0.1,0.3-0.2,0.4-0.5,0.5c-0.3,0.1-0.8,0.1-1.6,0.1c-0.8,0-1.4,0-1.7-0.1
		c-0.3-0.1-0.4-0.2-0.5-0.5C15,21,15,20.5,15,19.7V8L19.5,11.6z"/>
	<path d="M15,3.2V3c0-0.8,0-1.3,0.1-1.6C15.1,1.2,15.3,1,15.6,1c0.3-0.1,0.8-0.1,1.7-0.1c0.8,0,1.4,0,1.6,0.1
		c0.3,0.1,0.4,0.2,0.5,0.5c0.1,0.3,0.1,0.8,0.1,1.6v3.8v1.9L15,5.2V3.2z"/>
</g>
</svg>
